<?xml version="1.0" standalone="no"?>
<!DOCTYPE svg PUBLIC "-//W3C//DTD SVG 20010904//EN" "http://www.w3.org/TR/2001/REC-SVG-20010904/DTD/svg10.dtd">
<svg version="1.0" xmlns="http://www.w3.org/2000/svg" viewBox="0 0 447.670728 992.019917"
  preserveAspectRatio="xMidYMid meet">
  <metadata>
    Created by Potrace Professional 1.1m
  </metadata>
  <g transform="translate(-261.000000,1013.019917) rotate(-360.00) scale(0.095238,-0.095238)" fill="#000000"
    stroke="none">
    <path d="M6398 10610 c-20 -20 -25 -35 -21 -55 43 -234 48 -352 23 -538 -44
-324 -129 -595 -270 -863 -30 -56 -60 -103 -66 -103 -6 0 -16 27 -23 60 -31
164 -146 365 -288 504 -131 127 -318 235 -482 276 -310 79 -680 0 -1059 -225
-354 -211 -700 -551 -1228 -1207 -171 -212 -243 -315 -244 -346 0 -52 58 -83
97 -53 32 25 239 249 334 361 308 365 381 445 598 662 253 253 420 380 662
503 338 171 648 205 910 98 250 -103 452 -332 529 -597 23 -80 36 -173 24
-172 -24 1 -133 31 -140 38 -4 5 -18 43 -30 84 -88 296 -371 513 -699 536
-154 11 -387 -34 -506 -97 -28 -15 -25 -15 59 -8 422 38 763 -74 955 -315 50
-62 123 -193 114 -202 -3 -3 -42 -8 -86 -12 l-81 -7 -71 68 c-99 97 -153 138
-239 181 -246 123 -547 125 -842 5 -211 -85 -426 -237 -620 -438 -97 -101
-258 -290 -290 -341 -20 -32 -18 -31 32 12 268 231 423 351 593 461 97 63 296
156 397 186 299 90 579 45 780 -124 l35 -29 -141 8 c-386 24 -589 2 -788 -87
-155 -70 -257 -136 -359 -232 -80 -76 -93 -106 -86 -197 8 -90 -14 -239 -71
-500 -23 -106 -47 -218 -54 -248 -6 -30 -16 -54 -22 -52 -11 4 -121 208 -200
372 -48 98 -62 119 -86 125 -32 8 -52 -2 -80 -39 -18 -24 -18 -29 2 -130 33
-171 59 -559 75 -1112 9 -307 9 -469 0 -651 -12 -238 -45 -626 -64 -764 -33
-231 -67 -645 -79 -954 -11 -255 11 -559 58 -840 15 -87 53 -230 100 -373 31
-97 50 -164 90 -315 114 -440 173 -619 258 -787 131 -259 316 -427 531 -484
l71 -18 -6 -36 c-10 -52 20 -122 71 -165 l43 -37 -27 -21 c-64 -51 -87 -128
-55 -189 24 -47 93 -100 157 -120 54 -17 71 -38 30 -38 -34 0 -139 -66 -165
-104 -58 -83 -15 -184 106 -250 34 -18 35 -21 35 -82 0 -115 84 -240 201 -300
63 -32 177 -72 205 -72 38 -1 77 44 77 87 0 52 -25 75 -126 114 -102 39 -178
103 -178 147 l0 26 175 0 c131 0 195 5 249 18 154 39 237 107 237 196 0 92
-58 147 -203 194 -47 15 -93 30 -101 33 -9 3 18 15 61 26 88 23 176 75 211
124 36 50 33 117 -7 166 -73 92 -215 136 -475 150 -229 12 -342 39 -334 82 3
16 52 18 607 24 643 6 686 10 787 61 81 42 152 133 257 331 28 52 69 127 92
167 55 95 128 244 214 434 192 429 341 954 429 1520 33 211 72 384 149 651
145 503 164 633 193 1308 18 447 50 887 89 1228 49 441 44 825 -17 1134 -34
176 -44 212 -120 473 -117 396 -134 430 -204 414 -55 -12 -63 -36 -63 -185 0
-73 -7 -168 -15 -210 -18 -89 -68 -247 -109 -339 -34 -78 -255 -468 -265 -468
-18 0 24 207 109 542 117 462 119 627 10 1169 -35 177 -90 400 -124 510 -10
29 -31 96 -47 150 -17 54 -39 107 -49 118 -26 30 -83 27 -116 -6z m179 -887
c25 -114 59 -402 59 -496 0 -121 -27 -307 -69 -468 -127 -484 -148 -637 -121
-884 l9 -79 -58 -152 c-32 -83 -60 -147 -61 -141 -1 5 -8 78 -15 162 -12 143
-29 274 -69 536 -22 145 -80 370 -120 465 -17 41 -31 79 -31 84 0 5 37 72 82
147 123 205 232 435 283 595 33 105 75 279 76 312 0 46 16 10 35 -81z m-752
-976 c116 -51 170 -156 227 -441 48 -239 89 -564 111 -877 29 -412 24 -851
-16 -1239 -25 -245 -94 -632 -146 -824 -9 -32 -28 -103 -43 -158 -77 -285
-255 -773 -373 -1024 -11 -24 -20 -46 -20 -49 0 -4 -23 -56 -51 -115 -28 -60
-68 -145 -89 -190 -79 -168 -127 -266 -141 -289 -16 -24 -16 -24 -38 -5 -12
11 -66 50 -119 86 -170 115 -160 102 -369 515 -356 706 -407 878 -458 1544
-18 229 -33 376 -48 462 -35 206 -76 377 -127 533 -21 65 -21 69 -5 189 10 68
24 156 32 196 24 116 75 408 121 693 54 334 88 508 117 606 63 212 158 319
333 377 65 22 79 23 238 14 230 -13 422 -10 541 9 137 22 253 17 323 -13z
m1339 -103 c68 -273 88 -411 97 -664 7 -200 -10 -522 -47 -856 -23 -211 -57
-683 -74 -1018 -38 -766 -44 -804 -175 -1260 -80 -279 -112 -418 -156 -672
-137 -812 -292 -1290 -607 -1880 -30 -57 -78 -147 -106 -199 -70 -133 -127
-218 -161 -243 -41 -31 -121 -59 -154 -55 l-28 4 110 224 c117 240 146 312
192 485 l30 110 -3 419 c-4 470 3 547 66 815 20 83 39 162 43 175 13 48 -16
22 -74 -65 -91 -137 -141 -253 -170 -393 -23 -113 -25 -146 -25 -473 0 -447
-14 -549 -101 -741 -17 -38 -19 -40 -22 -15 -53 393 -156 697 -324 951 l-66
100 92 191 c146 303 161 335 268 584 232 541 379 1003 472 1486 70 364 92 556
117 1003 14 272 27 366 68 529 19 73 84 269 123 369 50 130 224 480 339 681
106 187 178 338 213 447 13 41 26 74 29 74 4 0 19 -51 34 -113z m-2873 -52
c-68 -134 -110 -324 -217 -964 -76 -454 -88 -519 -97 -519 -8 0 -89 165 -113
233 -12 32 -12 48 -1 94 99 406 127 534 157 714 17 100 34 213 38 252 6 64 11
74 46 105 41 36 190 134 204 134 4 0 -3 -22 -17 -49z m-629 -1247 c123 -244
194 -412 261 -614 133 -399 163 -568 209 -1145 21 -267 47 -453 86 -609 30
-123 118 -364 182 -501 23 -49 42 -91 42 -94 0 -5 80 -164 239 -476 135 -265
163 -300 335 -421 223 -157 322 -271 423 -485 99 -212 156 -433 194 -753 27
-225 25 -249 -39 -364 -35 -64 -62 -100 -76 -104 -12 -3 -246 -1 -520 5 -547
11 -587 15 -711 76 -235 116 -379 380 -534 979 -76 294 -79 303 -134 474 -164
508 -182 1001 -74 1984 82 752 91 927 77 1475 -5 224 -15 464 -20 532 -13 156
-13 168 -2 156 6 -6 33 -57 62 -115z m1387 -6033 c48 -6 109 -19 135 -30 46
-18 48 -20 27 -31 -51 -27 -169 -47 -286 -47 -122 0 -290 20 -300 36 -11 17
64 46 163 63 121 22 150 23 261 9z m35 -451 c51 -11 105 -27 121 -35 l29 -16
-31 -12 c-45 -18 -145 -31 -232 -31 -128 -1 -330 43 -330 71 0 8 49 27 100 37
62 13 258 5 343 -14z" />
    <path d="M4762 7956 c-110 -62 -164 -292 -115 -483 67 -259 301 -229 362 46
18 81 8 274 -16 330 -53 121 -137 160 -231 107z" />
    <path d="M5487 7885 c-56 -51 -84 -115 -101 -225 -44 -297 119 -516 282 -378
92 77 133 334 80 493 -34 102 -91 153 -172 153 -36 0 -51 -8 -89 -43z" />
    <path d="M4972 6992 c-127 -117 -146 -289 -41 -375 78 -65 269 -84 378 -39 47
20 56 32 56 75 1 57 -21 66 -157 64 -124 -2 -156 6 -186 44 -22 28 -15 57 29
130 47 79 51 105 18 128 -34 24 -46 20 -97 -27z" />
    <path d="M5427 6006 c-74 -64 -127 -84 -219 -84 -89 1 -163 25 -240 82 -27 19
-59 34 -77 34 -37 0 -82 -42 -82 -76 0 -96 218 -218 387 -218 234 0 471 182
366 281 -38 35 -79 29 -135 -19z" />
    <path d="M6969 6807 c-3 -16 -18 -86 -33 -155 -15 -70 -37 -171 -48 -226 -11
-55 -35 -166 -53 -247 -17 -81 -43 -201 -57 -267 -14 -67 -40 -192 -58 -279
-18 -86 -42 -207 -53 -267 -11 -61 -36 -201 -56 -310 -20 -110 -51 -282 -68
-383 -18 -102 -44 -255 -59 -342 -30 -176 -31 -181 -17 -167 5 5 27 74 48 152
50 181 85 307 117 420 66 234 169 706 218 1002 50 301 142 1081 129 1094 -2 2
-7 -9 -10 -25z" />
    <path d="M3886 4846 c-1 -6 6 -75 15 -152 43 -377 121 -706 233 -991 76 -194
217 -451 361 -661 80 -116 293 -379 301 -370 3 2 -14 35 -37 71 -52 82 -139
228 -139 233 0 3 -24 46 -54 97 -47 82 -142 272 -222 445 -85 183 -220 539
-289 761 -49 155 -138 478 -139 500 -1 18 -29 81 -30 67z" />
    <path d="M3791 3572 c0 -9 40 -203 69 -333 39 -174 128 -430 210 -600 48 -101
168 -287 248 -387 127 -157 321 -301 494 -366 77 -29 89 -24 36 18 -98 78
-285 274 -412 432 -135 170 -312 453 -390 623 -84 181 -214 516 -229 587 -6
30 -26 50 -26 26z" />
  </g>
</svg>