<?xml version="1.0" standalone="no"?>
<!DOCTYPE svg PUBLIC "-//W3C//DTD SVG 20010904//EN" "http://www.w3.org/TR/2001/REC-SVG-20010904/DTD/svg10.dtd">
<svg version="1.0" xmlns="http://www.w3.org/2000/svg" viewBox="0 0 847.361062 1870.607022"
  preserveAspectRatio="xMidYMid meet">
  <metadata>
    Created by Potrace Professional 1.1m
  </metadata>
  <g transform="translate(-105.187752,1925.429639) rotate(-360.00) scale(0.095238,-0.095238)" fill="#000000"
    stroke="none">
    <path d="M3575 20212 c-57 -4 -157 -15 -220 -24 -64 -10 -132 -20 -152 -23
-78 -11 -111 -19 -122 -27 -6 -5 -51 -17 -100 -26 -48 -10 -93 -21 -99 -26 -8
-6 -57 -20 -89 -25 -3 -1 -43 -15 -89 -31 -210 -74 -295 -106 -306 -114 -10
-7 -44 -20 -177 -66 -112 -38 -186 -66 -192 -72 -3 -4 -17 -6 -31 -6 -13 0
-24 -5 -24 -11 0 -5 -17 -13 -37 -16 -20 -4 -39 -12 -42 -17 -4 -5 -17 -9 -29
-9 -13 -1 -49 -10 -81 -22 -59 -22 -80 -27 -304 -82 -142 -34 -173 -43 -297
-82 -132 -42 -108 -49 135 -41 119 4 221 10 226 13 8 5 115 25 161 30 12 2 30
6 40 11 10 4 22 5 25 1 4 -3 12 -2 18 2 12 9 61 23 164 45 32 7 62 16 68 20 6
4 25 10 42 13 66 12 159 39 189 54 18 9 39 17 48 17 22 0 120 35 124 45 2 4
13 8 24 8 12 0 50 10 86 24 101 37 265 91 279 91 7 0 32 9 56 21 24 12 51 21
60 21 9 0 45 9 79 21 35 11 85 25 111 32 25 6 70 18 99 26 116 31 320 64 457
74 188 14 277 9 677 -37 35 -4 96 -15 137 -24 40 -10 101 -24 134 -30 34 -7
63 -17 66 -22 3 -5 22 -8 42 -8 19 0 89 -15 154 -33 65 -19 131 -36 147 -38
16 -3 32 -10 35 -15 3 -5 17 -9 31 -9 14 0 28 -5 31 -10 4 -6 16 -11 28 -11
11 0 42 -12 68 -26 26 -15 52 -26 57 -26 18 0 240 -112 315 -158 98 -61 106
-66 124 -87 9 -10 20 -18 25 -18 14 0 132 -86 138 -101 3 -8 11 -14 18 -14 6
0 27 -16 45 -35 19 -18 59 -56 89 -83 30 -26 54 -53 54 -58 0 -6 9 -19 21 -29
12 -11 21 -24 21 -31 0 -6 9 -17 20 -24 11 -7 43 -47 71 -89 28 -42 58 -84 67
-92 9 -9 28 -33 42 -53 21 -31 22 -34 4 -22 -11 9 -25 21 -31 27 -41 45 -325
279 -338 279 -6 0 -37 21 -71 47 -33 26 -72 50 -86 54 -13 3 -24 9 -24 14 0 4
-25 21 -56 37 -30 15 -90 47 -133 70 -44 23 -108 52 -142 66 -35 13 -80 33
-101 45 -21 12 -66 27 -100 35 -34 7 -72 20 -84 27 -12 8 -58 19 -103 24 -44
6 -85 13 -89 16 -36 22 -283 32 -720 29 -225 -1 -440 -4 -478 -7 -38 -3 -134
-11 -215 -17 -81 -6 -158 -13 -170 -15 -13 -3 -43 -8 -68 -11 -275 -33 -645
-144 -875 -261 -41 -21 -78 -38 -83 -38 -5 0 -50 -19 -100 -43 -50 -24 -124
-59 -165 -79 -41 -19 -77 -35 -80 -35 -4 0 -41 -17 -83 -36 -68 -32 -406 -147
-502 -171 -19 -5 -38 -16 -40 -24 -5 -12 16 -13 126 -7 150 8 355 46 495 91
103 34 112 37 188 71 27 13 55 23 61 23 6 0 33 10 60 22 104 47 187 86 226
105 22 11 47 20 55 20 8 0 15 4 15 9 0 5 20 14 45 22 45 12 164 59 246 96 24
11 57 20 74 20 16 0 34 4 40 9 15 15 263 73 341 80 37 4 87 9 110 11 23 2 96
7 163 10 66 4 146 9 178 11 44 4 484 5 764 2 16 0 83 -6 149 -13 66 -8 124
-12 128 -9 5 3 19 -1 32 -8 14 -8 27 -14 30 -15 2 0 24 -5 47 -9 23 -5 51 -14
63 -20 11 -6 25 -12 31 -13 40 -7 163 -49 163 -55 0 -5 24 -15 53 -22 28 -7
52 -18 52 -23 0 -5 7 -9 14 -9 8 0 21 -8 28 -16 7 -9 22 -16 32 -16 10 0 20
-4 22 -8 2 -4 34 -23 72 -43 80 -40 90 -46 172 -99 34 -21 68 -39 76 -39 8 0
20 -9 27 -21 8 -12 19 -21 25 -21 6 0 26 -13 44 -30 19 -16 47 -36 63 -44 30
-15 37 -20 99 -76 21 -18 49 -41 62 -49 45 -30 235 -213 296 -286 48 -57 159
-210 189 -260 16 -26 64 -97 108 -158 43 -61 92 -131 109 -157 37 -57 53 -80
76 -111 47 -61 148 -250 224 -420 13 -29 48 -104 79 -168 161 -338 195 -438
215 -622 7 -60 9 -66 30 -63 21 3 22 8 21 97 0 65 2 85 8 63 20 -77 56 -346
82 -624 52 -552 49 -1091 -9 -1791 -6 -63 -12 -288 -13 -498 -3 -427 1 -463
52 -462 52 0 57 10 41 79 -15 63 -15 110 -4 356 4 75 9 201 13 279 3 77 7 153
10 168 2 14 7 56 10 94 6 62 20 189 32 284 2 20 7 76 10 126 4 49 8 102 11
118 12 74 21 403 21 758 0 553 -18 802 -81 1161 -12 66 -27 154 -34 194 -7 41
-16 80 -20 86 -4 6 -9 27 -12 46 -10 65 -44 204 -56 227 -7 12 -13 33 -12 45
0 13 -7 38 -15 56 -8 18 -25 71 -39 117 -14 46 -31 96 -38 111 -7 14 -13 31
-13 38 -1 29 -151 321 -209 406 -18 26 -33 50 -33 53 0 8 -151 222 -184 261
-6 7 -22 30 -36 50 -25 36 -58 78 -110 142 -66 80 -205 276 -205 289 0 5 -7
13 -15 17 -7 5 -27 30 -43 56 -63 100 -85 132 -97 142 -7 6 -24 30 -37 55 -41
76 -269 318 -300 318 -5 0 -22 14 -39 31 -16 17 -36 32 -43 32 -6 0 -19 11
-28 24 -9 14 -30 28 -46 31 -16 3 -46 20 -65 38 -19 17 -62 44 -95 60 -32 16
-61 31 -64 35 -18 21 -227 124 -278 138 -38 10 -173 59 -194 71 -14 7 -72 24
-279 80 -29 8 -109 27 -178 42 -70 15 -155 34 -189 42 -220 51 -749 86 -1019
68z m3154 -1809 c43 -56 82 -101 88 -101 5 0 7 -4 4 -9 -3 -5 5 -20 18 -34 12
-14 37 -47 54 -73 18 -26 35 -50 38 -52 4 -3 19 -25 34 -49 15 -25 32 -47 38
-51 6 -4 11 -16 11 -27 0 -11 4 -20 9 -20 9 0 102 -184 128 -252 7 -21 18 -43
23 -50 6 -7 14 -28 19 -47 4 -19 20 -68 34 -108 47 -135 113 -365 128 -446 4
-28 -139 308 -180 420 -3 8 -12 29 -20 47 -8 17 -29 67 -48 110 -40 95 -71
160 -123 257 -53 97 -190 332 -206 352 -7 9 -19 31 -26 50 -8 19 -30 55 -49
79 -19 24 -35 49 -36 55 0 6 -9 22 -20 37 -12 14 -21 30 -21 36 0 6 6 3 13 -6
7 -9 48 -62 90 -118z m670 -1510 c-3 -9 -6 -6 -6 6 -1 11 2 17 5 14 4 -4 4
-13 1 -20z" />
    <path d="M4568 19109 c-73 -5 -210 -19 -305 -31 -95 -13 -204 -26 -243 -31
-38 -5 -87 -14 -110 -19 -22 -6 -92 -16 -156 -23 -63 -6 -118 -14 -122 -17 -5
-2 -29 -7 -53 -10 -47 -6 -129 -23 -250 -52 -38 -8 -90 -20 -117 -25 -26 -6
-73 -20 -105 -33 -56 -23 -110 -40 -146 -47 -11 -2 -45 -16 -76 -30 -32 -15
-63 -27 -69 -27 -7 0 -58 -21 -115 -46 -56 -26 -114 -50 -128 -54 -27 -7 -47
-16 -147 -63 -31 -14 -65 -26 -74 -26 -10 0 -21 -4 -24 -7 -11 -11 -100 -41
-165 -56 -32 -7 -79 -20 -105 -29 -129 -42 -428 -79 -648 -81 -118 -1 -186 -6
-193 -14 -13 -13 -9 -14 174 -57 90 -21 133 -24 294 -24 177 0 230 5 431 43
11 2 37 7 58 10 102 17 412 108 498 146 33 15 100 40 160 61 19 6 35 15 35 19
0 4 15 11 34 15 18 4 39 12 46 17 7 6 25 12 41 15 16 3 40 15 55 26 14 11 35
21 46 21 11 0 56 13 101 30 44 17 102 36 128 43 26 7 75 22 110 34 68 22 125
35 221 50 34 5 108 17 163 26 187 32 434 69 588 89 119 15 388 1 417 -23 7 -6
16 -9 19 -6 3 3 39 -3 81 -15 42 -11 86 -23 99 -26 13 -3 24 -10 24 -15 0 -5
8 -9 18 -9 20 0 142 -42 150 -51 3 -4 21 -8 40 -9 19 -2 45 -10 58 -18 12 -8
37 -17 54 -20 18 -3 53 -12 79 -21 26 -9 65 -19 87 -23 21 -4 42 -12 45 -17 3
-5 17 -9 31 -9 14 0 28 -5 31 -10 4 -6 18 -11 32 -11 14 0 26 -4 26 -9 0 -5
21 -13 47 -17 26 -4 48 -11 48 -15 0 -5 27 -23 60 -39 33 -17 65 -35 71 -42 6
-6 44 -38 85 -70 80 -62 340 -318 340 -334 0 -5 7 -9 16 -9 8 0 16 -5 16 -10
0 -5 27 -38 60 -72 115 -118 160 -169 160 -180 0 -6 4 -11 8 -11 5 0 34 -34
66 -75 31 -41 63 -81 70 -89 8 -7 14 -19 14 -25 0 -6 3 -11 8 -11 14 0 117
-164 124 -198 4 -19 13 -37 20 -40 18 -7 84 12 82 24 -1 5 -4 31 -7 57 -3 25
-11 63 -19 84 -13 39 -88 183 -108 210 -6 8 -20 33 -31 54 -11 22 -29 48 -39
60 -11 12 -20 25 -20 29 0 5 -10 21 -22 35 -11 14 -38 51 -58 82 -42 60 -80
108 -117 144 -13 13 -23 26 -23 30 0 7 -83 98 -151 166 -21 22 -37 40 -34 40
15 0 -222 222 -242 227 -13 3 -26 12 -29 20 -6 15 -168 110 -199 116 -31 6
-63 16 -86 25 -21 10 -132 46 -141 47 -3 1 -12 5 -19 9 -7 5 -13 6 -13 3 0 -3
-22 4 -48 15 -27 12 -56 21 -66 21 -10 0 -35 9 -55 19 -21 10 -91 37 -157 59
-66 21 -127 42 -136 46 -9 3 -23 7 -31 8 -9 2 -43 10 -77 18 -33 8 -60 13 -60
10 0 -3 -6 0 -13 5 -30 24 -246 35 -417 23z" />
    <path d="M9432 18618 c-96 -97 -144 -208 -156 -364 -9 -121 2 -92 -195 -497
-63 -129 -114 -237 -114 -240 0 -2 -26 -59 -59 -127 -85 -179 -125 -262 -155
-327 -14 -32 -33 -70 -42 -84 -33 -58 -121 -241 -131 -275 -6 -19 -28 -80 -49
-135 -21 -55 -40 -107 -42 -115 -2 -9 -23 -73 -48 -142 -24 -70 -44 -137 -45
-150 -1 -13 -4 -23 -7 -23 -4 0 -7 -6 -7 -14 -1 -23 -46 -189 -62 -228 -9 -20
-20 -56 -25 -79 -8 -38 -48 -176 -112 -388 -38 -127 -118 -378 -151 -473 -16
-46 -32 -100 -36 -120 -4 -21 -17 -63 -28 -95 -12 -32 -23 -62 -24 -68 -14
-57 -21 -81 -37 -126 -22 -60 -56 -171 -60 -194 -1 -9 -14 -54 -28 -100 -14
-46 -34 -115 -44 -152 -10 -38 -22 -80 -27 -93 -6 -14 -12 -42 -16 -63 -3 -21
-9 -53 -14 -70 -10 -35 -61 -258 -68 -299 -13 -82 -63 -319 -76 -368 -9 -32
-17 -72 -19 -90 -2 -18 -11 -61 -20 -95 -9 -34 -26 -104 -39 -156 -25 -106
-47 -185 -141 -504 -58 -201 -101 -352 -204 -730 -18 -66 -42 -154 -53 -194
-37 -135 -83 -335 -95 -410 -6 -40 -17 -109 -26 -152 -8 -43 -24 -145 -36
-226 -13 -81 -30 -187 -39 -236 -9 -49 -18 -101 -20 -115 -2 -14 -6 -50 -10
-79 -3 -29 -15 -98 -26 -152 -11 -55 -29 -152 -41 -216 -12 -63 -50 -240 -85
-393 -35 -154 -66 -290 -69 -303 -11 -55 -68 -296 -87 -369 -12 -44 -38 -155
-59 -247 -78 -340 -155 -604 -224 -767 -88 -209 -241 -488 -267 -488 -4 0 -8
-7 -8 -15 0 -8 -30 -52 -66 -97 -36 -45 -73 -94 -82 -108 -10 -15 -33 -44 -53
-64 -19 -21 -56 -66 -82 -100 -26 -34 -69 -86 -97 -115 -27 -29 -69 -78 -92
-110 -23 -32 -55 -77 -72 -100 -17 -23 -52 -76 -76 -118 -25 -42 -48 -76 -51
-76 -4 0 -30 36 -59 81 -29 44 -59 88 -68 97 -9 9 -28 35 -43 58 -75 119 -91
141 -134 195 -26 31 -70 81 -98 110 -79 82 -72 73 -180 236 -20 32 -57 85 -80
119 -23 34 -43 63 -43 66 1 2 -16 29 -36 61 -20 32 -37 61 -37 64 0 4 -26 46
-57 94 -113 172 -213 396 -279 629 -78 271 -85 295 -102 343 -29 83 -67 182
-87 225 -76 162 -135 314 -198 510 -87 270 -104 333 -168 624 -71 321 -92 438
-106 609 -6 70 -16 164 -21 210 -6 46 -18 153 -27 237 -19 164 -67 416 -97
504 -26 76 -79 283 -87 346 -5 38 -12 141 -16 231 -9 235 -23 415 -41 499 -37
184 -77 337 -143 551 -45 148 -91 322 -104 399 -6 38 -16 84 -22 103 -8 24 -8
44 -1 63 6 16 20 71 32 123 11 52 28 127 38 168 9 41 20 104 26 142 19 140
109 589 132 661 9 26 20 69 25 95 19 91 51 226 80 336 15 60 35 143 43 183 7
41 19 97 26 126 43 195 83 372 86 389 3 12 7 28 11 37 4 8 14 46 22 84 8 37
25 101 37 141 12 41 32 109 43 153 59 221 318 996 375 1123 51 114 57 126 66
120 5 -2 11 0 15 5 8 14 -49 43 -83 43 -17 0 -35 -12 -52 -34 -24 -33 -122
-219 -122 -234 0 -4 -7 -22 -15 -40 -107 -243 -392 -1061 -457 -1314 -12 -46
-27 -96 -33 -110 -6 -14 -22 -81 -36 -147 -14 -67 -37 -173 -53 -237 -15 -63
-29 -127 -32 -141 -7 -39 -45 -205 -87 -378 -58 -242 -125 -581 -143 -730 -4
-29 -14 -92 -22 -140 -9 -47 -17 -96 -17 -107 -3 -32 -11 -25 -34 29 -25 59
-98 203 -130 255 -12 20 -22 42 -22 50 0 7 -6 19 -12 26 -21 24 -61 97 -151
281 -51 101 -96 190 -101 199 -5 9 -23 42 -38 74 -16 31 -32 60 -36 63 -3 2
-16 25 -29 50 -22 44 -36 62 -83 114 -13 14 -33 44 -44 67 -12 23 -25 42 -29
42 -8 0 -17 15 -74 115 -41 72 -107 232 -107 259 0 13 -5 26 -12 30 -11 7 -6
189 8 312 l6 50 -56 25 c-69 30 -169 54 -192 45 -25 -9 -99 -172 -112 -245
-13 -68 -5 -231 13 -261 3 -6 13 -36 20 -68 18 -72 15 -63 26 -100 5 -17 20
-55 35 -83 25 -50 26 -60 29 -305 2 -139 5 -278 8 -310 3 -32 8 -100 12 -151
3 -52 8 -97 10 -100 11 -19 21 -256 21 -531 0 -374 -11 -770 -31 -1155 -3 -52
-8 -140 -11 -194 -5 -100 -14 -209 -21 -268 -9 -74 -18 -161 -21 -200 -2 -23
-6 -65 -10 -94 -29 -248 -44 -398 -53 -530 -3 -50 -8 -102 -9 -116 -2 -14 -7
-83 -11 -152 -3 -70 -9 -152 -12 -184 -3 -32 -10 -122 -16 -199 -20 -276 -35
-429 -72 -777 -27 -246 -85 -728 -90 -746 -2 -9 -21 -148 -42 -310 -20 -161
-46 -360 -58 -441 -11 -81 -25 -187 -32 -236 -6 -49 -13 -101 -15 -115 -2 -15
-6 -53 -10 -84 -3 -32 -11 -101 -16 -153 -6 -52 -15 -141 -21 -199 -7 -58 -16
-138 -21 -179 -5 -40 -12 -104 -16 -141 -3 -38 -8 -90 -10 -116 -3 -26 -8 -83
-11 -126 -3 -43 -8 -86 -10 -94 -2 -9 -7 -82 -11 -163 -4 -81 -9 -176 -11
-210 -11 -178 -3 -978 11 -1087 3 -20 7 -72 11 -115 9 -130 26 -295 37 -363 6
-34 15 -96 20 -136 6 -41 12 -86 15 -100 19 -92 54 -288 69 -388 6 -44 16 -95
21 -116 6 -20 18 -70 27 -110 10 -41 24 -88 31 -105 8 -18 17 -44 21 -58 8
-25 110 -231 121 -241 3 -3 17 -27 30 -53 14 -26 32 -55 40 -64 8 -9 14 -21
14 -27 0 -27 156 -254 211 -307 98 -94 171 -158 182 -158 6 0 23 -15 38 -32
14 -17 31 -31 38 -31 7 0 14 -5 16 -9 8 -20 125 -107 144 -107 12 0 25 -6 29
-13 15 -23 111 -92 129 -92 24 0 118 -58 108 -67 -4 -5 -3 -7 3 -5 6 2 24 -2
42 -8 17 -6 50 -17 73 -24 23 -7 52 -17 63 -22 12 -5 43 -15 69 -22 25 -7 51
-15 57 -17 6 -2 27 -6 48 -9 44 -8 104 -34 105 -46 0 -4 32 -18 72 -31 40 -12
83 -32 96 -43 13 -12 27 -21 30 -22 35 -4 60 -12 74 -24 30 -26 111 -59 161
-66 27 -3 50 -10 50 -15 0 -5 11 -9 25 -9 14 0 27 -5 29 -10 2 -5 24 -12 50
-15 25 -4 48 -9 51 -12 7 -7 5 -180 -4 -389 -11 -289 -12 -629 -2 -650 6 -11
12 -42 14 -68 6 -75 24 -135 75 -242 46 -96 140 -221 167 -221 7 0 30 -16 53
-37 22 -20 44 -36 48 -36 4 0 44 -24 88 -53 44 -29 85 -52 91 -52 6 0 28 -13
49 -29 20 -16 41 -28 46 -26 5 1 32 -12 61 -29 83 -51 214 -92 324 -100 51 -4
125 -11 252 -22 111 -11 388 -7 522 6 62 7 135 14 161 16 25 3 69 7 96 10 116
11 287 45 392 77 28 9 66 17 84 19 30 4 65 14 199 59 77 26 177 85 222 130 65
64 120 173 120 238 -1 25 3 49 6 53 15 15 1 233 -23 359 -2 11 -11 70 -20 131
-9 61 -21 139 -27 173 -6 35 -14 82 -17 105 -3 23 -12 68 -19 100 -8 32 -17
79 -21 105 -10 65 -56 254 -74 305 -15 41 -15 41 18 58 18 10 38 22 44 27 7 5
34 25 60 43 63 44 130 100 165 138 16 17 46 42 68 55 22 14 37 30 34 36 -4 5
-1 10 7 10 19 0 103 78 103 96 1 12 43 48 103 88 9 6 27 21 39 34 13 13 29 24
35 24 7 0 12 4 12 9 0 6 10 13 22 17 22 7 114 98 114 113 0 4 8 8 16 8 9 0 16
3 16 8 0 5 18 28 39 52 95 102 119 130 134 159 20 40 62 85 78 85 7 0 10 4 7
10 -4 5 1 16 10 25 8 9 16 20 16 25 0 4 17 27 39 50 22 23 40 44 40 47 3 21
23 51 43 67 14 11 22 23 19 28 -3 5 -2 10 3 12 11 5 66 90 66 103 0 6 3 11 8
11 9 0 55 88 55 105 0 5 11 26 25 46 19 28 98 212 106 248 1 3 8 19 15 37 12
26 55 164 68 215 2 9 9 29 16 46 6 17 14 47 17 68 4 21 11 43 16 48 5 6 10 18
10 29 0 17 38 154 63 224 6 17 13 41 16 52 2 12 14 54 26 95 12 40 26 90 31
110 9 42 42 162 74 268 12 40 28 105 36 144 8 39 17 75 20 79 3 5 17 53 31
108 15 54 34 125 43 157 9 32 19 70 22 85 2 15 12 45 21 66 9 21 26 79 38 129
11 50 27 108 35 129 7 20 26 80 41 132 34 112 146 468 176 554 11 33 28 87 36
120 19 75 73 253 98 323 57 160 136 398 141 426 6 27 36 144 63 241 9 32 25
88 34 126 10 38 20 75 23 84 3 9 7 26 10 38 2 13 13 51 25 84 11 34 33 102 47
151 15 49 38 122 51 163 23 67 46 148 85 294 23 89 76 322 89 394 7 37 14 75
17 84 8 33 25 115 46 225 11 64 31 165 43 226 11 61 23 127 26 147 3 20 10 51
15 68 5 18 14 72 21 121 6 49 16 115 21 147 5 32 17 131 26 221 9 89 18 181
21 204 2 23 7 132 10 242 8 259 16 429 22 488 3 26 7 71 10 100 3 29 10 92 16
142 16 135 40 392 47 504 3 54 10 165 16 246 5 81 12 230 15 331 4 101 8 233
11 294 9 179 16 416 21 730 3 161 8 360 12 441 22 463 7 909 -39 1197 -11 70
-29 162 -40 205 -11 43 -23 100 -27 126 -5 25 -17 74 -27 107 -11 33 -22 80
-25 106 -3 25 -12 67 -20 92 -9 25 -18 75 -21 109 -3 35 -11 86 -17 114 -6 28
-14 72 -16 99 -5 45 -13 95 -23 144 -3 12 -9 47 -14 79 -14 87 -20 116 -36
173 -8 29 -18 76 -21 104 -4 28 -10 61 -12 73 -19 101 -35 222 -35 275 0 34
-3 129 -7 210 -7 172 1 227 53 362 97 252 135 396 112 423 -5 7 -11 16 -11 21
-1 4 -3 8 -6 8 -3 0 -14 7 -24 16 -10 8 -35 30 -55 48 -128 111 -172 119 -249
42z m-130 -1525 c28 -133 42 -208 48 -249 4 -26 11 -58 17 -72 5 -14 10 -43
10 -65 0 -21 7 -71 16 -112 9 -40 18 -92 21 -115 9 -63 23 -142 35 -189 5 -23
19 -89 31 -147 11 -58 26 -119 32 -135 6 -16 9 -34 5 -40 -3 -5 -1 -16 5 -23
6 -7 12 -31 14 -53 1 -22 6 -42 11 -45 5 -3 6 -9 3 -13 -2 -4 2 -36 10 -70 8
-35 18 -86 21 -115 21 -168 28 -230 34 -320 9 -123 9 -402 -1 -709 -3 -127 -9
-460 -12 -740 -3 -280 -8 -601 -11 -714 -8 -358 -69 -1074 -110 -1301 -15 -82
-40 -394 -52 -647 -20 -417 -74 -783 -194 -1302 -15 -63 -39 -170 -53 -236
-25 -110 -62 -263 -104 -425 -14 -52 -103 -340 -144 -462 -6 -18 -36 -107 -66
-200 -50 -147 -116 -358 -138 -435 -4 -15 -11 -31 -15 -37 -4 -6 -11 -30 -15
-53 -4 -23 -56 -191 -116 -372 -60 -182 -121 -371 -136 -420 -14 -50 -39 -128
-53 -174 -35 -106 -47 -147 -94 -309 -21 -73 -45 -155 -54 -184 -9 -29 -21
-73 -26 -98 -5 -25 -17 -67 -26 -95 -41 -127 -79 -257 -100 -343 -13 -52 -27
-99 -32 -104 -5 -6 -9 -23 -9 -40 0 -16 -5 -37 -10 -48 -5 -10 -15 -37 -21
-60 -6 -23 -31 -106 -55 -183 -24 -78 -45 -154 -48 -168 -3 -15 -12 -42 -20
-60 -8 -18 -15 -42 -15 -52 0 -11 -14 -62 -31 -113 -17 -52 -31 -99 -31 -106
0 -6 -12 -49 -27 -95 -35 -112 -98 -318 -110 -357 -50 -178 -125 -405 -138
-419 -5 -6 -9 -18 -9 -26 0 -15 -65 -149 -127 -262 -14 -25 -38 -60 -54 -77
-16 -18 -32 -43 -35 -57 -4 -14 -13 -25 -20 -25 -8 0 -28 -22 -45 -50 -17 -27
-49 -69 -70 -92 -21 -23 -41 -51 -44 -63 -4 -11 -25 -37 -47 -57 -23 -21 -52
-52 -65 -70 -85 -119 -158 -203 -173 -203 -7 0 -15 -10 -18 -22 -4 -12 -19
-26 -33 -31 -14 -6 -25 -15 -25 -20 0 -6 -17 -19 -38 -28 -43 -21 -77 -53
-166 -153 -34 -39 -79 -79 -99 -90 -21 -10 -41 -22 -43 -25 -3 -4 -29 -25 -58
-47 -29 -21 -62 -48 -74 -59 -71 -68 -117 -103 -142 -108 -16 -4 -42 -18 -56
-32 -32 -29 -35 -26 -11 11 10 14 26 26 37 26 10 0 22 5 25 10 4 6 -3 11 -15
11 -26 0 -27 -4 3 64 14 31 28 71 32 88 5 17 30 57 58 89 89 104 148 200 230
371 30 63 55 117 55 122 0 4 9 27 21 51 11 24 21 50 21 58 0 8 3 18 7 22 7 7
16 33 91 248 21 61 43 120 48 131 5 12 17 50 27 84 10 35 22 73 27 84 8 21 20
64 61 216 20 71 76 302 89 367 3 14 11 45 17 68 6 23 34 158 63 300 29 141 65
309 79 372 22 99 62 295 100 494 6 29 17 97 26 152 9 55 18 112 20 126 16 98
20 133 31 236 33 310 42 970 22 1575 -17 498 -10 967 16 1182 6 43 12 102 15
131 2 29 12 109 22 178 9 70 23 176 31 237 8 60 17 119 19 131 3 11 9 51 13
89 4 38 9 78 11 89 11 85 25 211 30 268 4 38 11 118 16 179 6 60 13 178 17
262 8 180 36 357 89 557 5 20 19 75 30 123 12 48 23 91 26 95 3 5 13 44 22 87
10 43 19 85 21 94 4 16 86 312 121 435 11 41 30 112 43 158 12 46 31 114 42
152 11 38 29 113 41 168 12 55 32 135 43 179 12 43 25 102 31 131 5 29 17 85
26 126 9 40 23 109 31 152 9 43 18 88 20 100 3 11 17 77 32 147 15 69 32 142
37 163 5 20 15 60 22 89 32 135 128 455 185 619 14 41 34 102 45 137 11 34 24
77 31 94 6 18 26 77 43 132 17 54 47 145 67 202 20 56 36 104 36 105 1 1 3 9
6 18 77 228 134 403 142 436 33 132 82 307 89 318 4 7 9 21 12 31 8 39 36 138
68 234 17 54 39 125 49 157 9 32 20 66 26 76 5 10 9 24 9 31 0 24 150 405 190
481 36 69 65 131 78 168 21 59 70 159 74 155 3 -3 9 -25 14 -51z m-7307 -2207
c1 -7 10 -32 21 -55 11 -23 20 -48 21 -55 0 -7 4 -13 10 -13 5 0 17 -27 27
-59 9 -33 23 -69 31 -82 7 -12 17 -35 20 -51 4 -16 12 -28 17 -28 6 0 11 -8
11 -17 0 -21 41 -120 58 -141 8 -9 14 -19 15 -24 4 -30 34 -102 42 -102 5 0
26 -37 48 -81 23 -45 44 -84 47 -87 4 -3 11 -17 15 -31 5 -15 11 -29 15 -32
12 -10 80 -152 77 -161 -2 -5 3 -17 11 -27 19 -22 50 -89 50 -108 0 -8 3 -19
8 -25 12 -14 40 -108 71 -241 15 -63 38 -162 52 -218 14 -57 26 -121 26 -143
0 -25 6 -43 15 -46 16 -7 40 -104 90 -367 11 -56 24 -118 30 -137 23 -74 34
-204 38 -486 5 -303 11 -357 59 -523 30 -106 47 -159 76 -243 35 -99 90 -382
148 -761 10 -61 22 -141 28 -178 14 -97 31 -176 48 -237 9 -29 27 -99 41 -157
15 -58 40 -155 57 -215 17 -61 33 -123 36 -137 9 -45 107 -376 175 -598 29
-93 90 -243 161 -393 58 -122 135 -336 169 -468 59 -231 172 -505 282 -687 53
-87 154 -248 209 -334 22 -33 39 -65 39 -71 0 -6 4 -11 8 -11 4 0 18 -15 30
-34 41 -63 112 -169 124 -185 17 -23 113 -116 170 -167 28 -25 75 -82 104
-126 28 -45 58 -86 65 -92 8 -6 22 -23 32 -38 22 -35 139 -188 156 -206 7 -7
16 -23 20 -34 3 -12 10 -21 14 -21 4 0 40 -45 80 -100 41 -55 89 -118 109
-139 19 -22 47 -56 62 -76 15 -20 71 -79 124 -131 88 -85 158 -174 184 -231
10 -21 51 -82 73 -108 6 -7 8 -13 5 -13 -4 0 -1 -6 5 -13 32 -36 165 -253 195
-318 41 -89 73 -217 89 -357 10 -93 22 -168 64 -409 17 -100 18 -107 20 -273
2 -252 -15 -639 -31 -681 -5 -13 -19 -94 -32 -180 -25 -174 -26 -182 -35 -205
-3 -9 -14 -56 -25 -104 -13 -60 -33 -114 -64 -168 -69 -122 -68 -121 -189
-119 -56 1 -114 5 -128 8 -31 7 -80 13 -189 21 -44 3 -110 10 -147 15 -38 5
-102 12 -142 15 -72 6 -116 10 -257 23 -38 4 -88 8 -111 9 -23 2 -54 8 -68 13
-14 6 -58 15 -97 19 -39 4 -73 12 -77 17 -3 5 -21 9 -40 9 -19 0 -58 8 -86 17
-29 9 -64 18 -78 21 -14 3 -28 10 -30 16 -2 5 -15 10 -28 10 -14 0 -43 6 -65
14 -22 9 -61 18 -87 22 -96 15 -111 18 -154 38 -25 11 -61 20 -82 20 -20 0
-37 5 -37 11 0 5 -9 10 -19 10 -10 0 -28 7 -39 15 -12 9 -28 16 -37 16 -8 0
-33 10 -54 21 -21 11 -41 17 -44 14 -4 -4 -6 -1 -6 5 0 6 -13 14 -29 18 -16 4
-36 13 -45 20 -36 31 -96 58 -141 65 -27 4 -51 11 -54 16 -3 5 -15 10 -27 10
-12 0 -34 6 -49 14 -62 33 -104 47 -154 51 -34 3 -52 9 -50 17 1 6 -6 12 -17
12 -26 0 -188 77 -264 125 -31 20 -63 36 -71 36 -8 0 -31 16 -51 35 -20 19
-40 35 -46 35 -5 0 -31 19 -58 42 -27 23 -62 49 -79 58 -17 9 -31 23 -31 32 0
8 -5 15 -11 15 -13 0 -77 56 -157 138 -64 65 -94 102 -164 205 -26 38 -52 75
-57 81 -5 6 -22 28 -39 49 -16 20 -38 54 -49 76 -11 21 -23 39 -26 39 -4 0
-16 18 -27 39 -12 22 -24 42 -28 45 -23 18 -105 224 -134 336 -114 453 -188
921 -208 1318 -16 306 -6 1359 13 1391 1 3 6 62 10 131 3 70 11 169 16 221 5
52 15 163 21 247 6 83 13 166 16 183 2 18 7 67 10 111 11 154 32 381 54 572 9
81 18 170 21 199 2 29 12 109 21 179 8 69 20 171 25 226 6 54 15 135 20 178 6
43 13 128 17 189 4 61 9 124 11 142 2 17 6 71 9 121 4 49 9 119 12 157 3 38 7
113 10 168 3 55 7 126 10 158 10 105 15 202 21 383 3 98 8 195 11 215 3 20 10
136 16 257 6 122 13 233 15 247 3 14 7 74 10 131 3 58 13 186 22 284 9 98 18
230 21 294 3 63 8 129 11 145 2 16 7 184 10 373 3 188 8 395 10 458 10 213 6
902 -5 1040 -6 75 -13 165 -16 199 -2 35 -7 85 -10 111 -12 98 -16 347 -5 341
5 -4 10 -12 10 -19z m5100 -5952 c-4 -9 -6 -6 -7 6 0 11 2 17 6 14 3 -4 4 -13
1 -20z m-11 -442 c0 -227 4 -511 8 -633 12 -324 14 -960 4 -1168 -9 -193 -30
-392 -56 -538 -9 -49 -20 -115 -26 -147 -11 -72 -49 -280 -57 -315 -12 -52
-16 -70 -38 -178 -12 -61 -26 -134 -30 -163 -8 -43 -39 -215 -80 -431 -4 -17
-11 -50 -17 -73 -6 -23 -17 -78 -25 -121 -9 -43 -18 -86 -22 -94 -3 -9 -12
-47 -20 -84 -41 -199 -160 -623 -205 -730 -4 -12 -24 -66 -42 -121 -58 -168
-62 -181 -101 -273 -52 -123 -121 -264 -127 -258 -3 3 5 54 17 113 31 154 31
151 39 305 4 76 9 149 11 160 4 24 5 367 0 399 -2 12 -6 47 -11 79 -7 56 -15
99 -37 200 -5 25 -22 141 -37 257 -27 204 -57 340 -99 454 -22 61 -188 378
-214 410 -6 7 -22 38 -36 68 -28 61 -65 113 -152 216 -32 39 -95 118 -138 175
-79 105 -80 105 -50 108 16 2 47 19 70 39 23 20 45 36 50 36 10 1 25 15 61 64
15 20 39 49 52 64 14 15 44 50 67 78 23 28 59 68 79 89 20 20 65 70 100 110
34 40 97 107 140 149 42 42 75 77 72 77 -2 0 18 23 44 51 27 28 60 68 75 90
14 21 31 45 38 52 30 33 176 266 201 320 14 32 38 77 51 98 60 95 174 392 224
580 10 41 27 102 37 137 24 81 67 262 74 310 4 20 11 55 17 78 5 23 16 68 24
100 8 32 25 106 38 165 13 60 25 108 26 108 1 0 2 -185 1 -412z m-3180 -6004
c2 -6 11 -10 20 -10 8 0 29 -7 46 -16 17 -8 45 -23 62 -32 17 -9 32 -13 32 -9
0 4 5 2 13 -4 12 -9 48 -17 128 -28 113 -15 174 -26 184 -32 6 -3 99 -9 207
-11 111 -3 199 -10 201 -15 2 -6 18 -10 37 -10 19 0 38 -5 44 -10 5 -6 66 -13
136 -16 69 -3 159 -10 199 -15 41 -5 190 -8 331 -7 218 2 272 5 352 24 52 11
146 27 210 34 123 13 170 27 236 68 46 29 43 34 62 -68 12 -58 18 -120 27
-262 3 -43 10 -93 16 -110 5 -18 12 -61 15 -95 3 -35 8 -73 10 -84 2 -12 10
-59 16 -105 7 -46 14 -97 16 -112 7 -41 -20 -46 -56 -10 -36 36 -56 34 -164
-9 -40 -17 -128 -50 -194 -74 -66 -25 -156 -58 -199 -74 -44 -16 -96 -35 -116
-41 -259 -79 -485 -153 -519 -167 -24 -11 -64 -27 -90 -37 -26 -11 -62 -26
-81 -35 l-33 -16 21 -33 c12 -18 29 -46 39 -62 17 -30 18 -30 101 -23 46 3 91
8 100 10 9 3 45 7 80 10 83 6 195 27 208 39 6 5 25 9 43 9 18 0 38 6 45 13 7
7 13 9 13 5 0 -4 41 8 91 25 50 18 98 34 107 36 28 6 163 56 182 68 10 6 24
11 31 11 8 0 80 32 161 71 81 40 150 72 153 71 3 0 14 6 24 14 33 27 43 0 27
-72 -13 -56 -22 -72 -78 -128 -35 -35 -82 -73 -105 -85 -54 -28 -221 -92 -268
-102 -20 -5 -53 -14 -73 -21 -42 -13 -239 -59 -294 -69 -21 -3 -68 -13 -105
-21 -38 -7 -111 -17 -163 -22 -122 -10 -611 -11 -693 -2 -99 11 -269 48 -282
60 -6 6 -19 12 -29 12 -19 0 -190 84 -218 107 -16 14 -50 35 -75 46 -9 4 -30
18 -47 30 -18 13 -48 32 -68 42 -53 27 -135 100 -147 131 -15 37 -20 87 -21
207 -2 110 8 173 28 179 6 2 33 -17 59 -44 25 -26 55 -47 65 -47 11 0 26 -7
36 -16 9 -8 40 -36 69 -63 28 -26 55 -47 60 -47 4 0 17 -8 27 -17 24 -20 198
-99 204 -93 3 3 19 -1 35 -7 21 -9 126 -14 330 -15 165 -1 350 -6 412 -10 98
-6 117 -4 144 12 32 19 42 35 21 35 -6 0 -9 4 -5 10 3 5 1 13 -6 17 -6 3 -9
13 -6 20 10 26 -43 88 -85 99 -183 47 -326 63 -611 69 -107 2 -209 7 -226 11
-93 21 -204 68 -226 95 -7 8 -19 15 -26 15 -8 0 -39 25 -70 55 -65 64 -170
138 -210 148 -27 7 -28 8 -22 78 3 39 10 77 16 85 13 16 78 11 128 -10 37 -15
43 -17 63 -19 8 0 22 -8 31 -17 8 -9 17 -15 19 -14 1 1 17 -3 34 -9 18 -6 36
-11 41 -11 5 0 12 -5 16 -9 3 -5 23 -18 43 -29 20 -11 48 -30 61 -42 14 -12
25 -21 26 -19 3 5 42 -10 58 -23 8 -6 20 -12 27 -13 6 -1 45 -17 85 -36 41
-20 78 -37 84 -38 6 -2 46 -13 90 -25 43 -12 88 -23 99 -25 12 -2 21 -4 21 -5
0 -3 11 -6 53 -15 11 -3 54 -8 94 -12 41 -4 86 -10 100 -13 62 -13 362 -15
464 -3 60 7 122 15 140 16 61 5 111 16 147 31 27 11 37 12 37 2 0 -8 3 -8 9 2
5 7 10 13 13 12 2 -1 17 4 33 10 17 6 32 11 34 11 12 0 58 56 58 71 0 23 -27
148 -37 173 -15 35 -42 41 -93 18 -98 -43 -387 -90 -579 -93 -167 -3 -395 16
-504 42 -186 44 -361 106 -410 145 -16 12 -34 22 -41 22 -7 0 -34 13 -59 30
-26 16 -60 33 -76 37 -16 4 -39 23 -52 44 -24 37 -56 44 -54 12 2 -22 0 -22
-39 -2 -17 9 -50 19 -73 22 -24 3 -51 8 -61 9 -9 2 -23 4 -30 5 -8 0 -12 23
-12 69 0 37 -3 90 -7 116 l-8 49 52 -7 c28 -4 52 -12 54 -17z" />
    <path d="M9036 14939 c-9 -47 -115 -688 -128 -780 -15 -97 -43 -318 -51 -403
-3 -27 -12 -105 -21 -174 -19 -150 -56 -498 -56 -520 0 -9 -7 -89 -16 -178
-19 -183 -47 -508 -55 -636 -3 -46 -10 -124 -15 -173 -6 -49 -20 -184 -32
-299 -18 -186 -27 -263 -48 -404 -3 -21 -14 -103 -25 -184 -11 -81 -30 -209
-42 -284 -12 -75 -29 -179 -37 -231 -8 -52 -20 -118 -26 -147 -6 -29 -21 -109
-33 -178 -39 -228 -122 -647 -162 -814 -27 -115 -169 -831 -225 -1129 -18 -98
-45 -233 -60 -299 -15 -66 -33 -150 -41 -185 -17 -81 -82 -301 -114 -392 -40
-112 -64 -161 -127 -265 -65 -106 -88 -162 -88 -210 0 -28 3 -31 28 -28 17 2
29 10 30 20 2 54 24 104 85 194 152 224 269 558 376 1071 20 98 44 211 53 252
9 40 23 113 32 163 18 96 98 467 131 603 19 78 29 124 83 378 11 52 23 107 26
121 96 447 178 884 231 1244 69 461 97 681 117 924 3 35 12 129 20 210 8 81
20 216 27 300 6 83 13 166 16 184 2 18 11 124 20 236 9 112 26 289 37 393 11
104 22 220 26 258 3 37 8 82 10 99 3 18 7 67 11 111 4 43 9 85 11 94 7 25 35
341 42 467 3 64 8 137 10 163 3 26 8 111 11 189 3 78 8 169 11 202 5 55 3 61
-16 61 -14 0 -23 -9 -26 -24z" />
    <path d="M2766 10828 c-7 -5 -15 -81 -19 -202 -5 -107 -10 -211 -12 -231 -2
-20 -7 -105 -11 -189 -3 -84 -8 -166 -10 -184 -2 -17 -7 -173 -12 -346 -16
-576 -9 -1575 12 -1635 2 -8 7 -54 10 -103 5 -96 24 -283 32 -325 2 -15 10
-67 16 -116 37 -288 157 -759 255 -997 4 -9 16 -46 28 -83 12 -37 25 -73 30
-79 5 -6 25 -52 44 -101 70 -179 216 -479 336 -688 50 -86 94 -164 98 -173 4
-9 15 -28 25 -44 22 -32 90 -145 97 -161 3 -6 21 -33 40 -60 19 -27 34 -51 34
-54 0 -3 32 -54 72 -113 40 -60 121 -182 180 -271 59 -90 115 -172 124 -182 9
-10 21 -27 27 -38 20 -35 322 -445 448 -607 36 -47 47 -54 72 -52 34 4 54 15
54 29 0 5 -12 7 -27 3 -19 -5 -26 -2 -26 9 0 9 -8 22 -18 30 -9 8 -36 54 -58
102 -23 48 -97 171 -164 273 -319 480 -519 792 -575 895 -11 20 -48 84 -82
141 -34 58 -84 143 -111 189 -64 111 -325 642 -325 661 -1 3 -13 33 -28 66
-50 112 -50 111 -100 250 -71 196 -139 410 -172 546 -19 77 -67 306 -77 367
-7 41 -17 100 -22 132 -16 90 -31 218 -37 299 -3 40 -8 87 -10 105 -2 17 -7
76 -11 131 -4 55 -9 121 -12 147 -15 141 -24 587 -30 1420 -2 339 -6 620 -9
625 -3 4 -8 67 -11 139 -4 72 -11 193 -17 268 -5 75 -10 154 -10 176 0 38 -13
48 -38 31z" />
    <path d="M3847 2431 c-9 -24 35 -86 86 -121 63 -42 72 -41 62 8 -11 59 -22 74
-79 102 -60 31 -61 31 -69 11z" />
    <path d="M4184 18554 c-52 -5 -163 -14 -246 -20 -215 -17 -475 -60 -641 -106
-43 -12 -109 -29 -147 -39 -38 -9 -75 -23 -84 -30 -9 -7 -25 -15 -37 -19 -76
-21 -444 -199 -458 -220 -4 -6 -27 -21 -53 -33 -86 -44 -134 -73 -134 -81 0
-5 -9 -9 -20 -9 -11 0 -23 -7 -26 -16 -4 -8 -13 -15 -22 -15 -8 0 -21 -7 -29
-14 -19 -19 -110 -81 -119 -81 -4 0 -44 -26 -90 -58 -46 -32 -86 -57 -89 -57
-3 0 -26 -14 -50 -30 -24 -17 -61 -39 -83 -49 -21 -10 -44 -25 -51 -33 -7 -8
-19 -14 -27 -14 -8 0 -17 -7 -21 -16 -3 -8 -14 -18 -25 -22 -11 -3 -27 -12
-34 -20 -8 -7 -41 -29 -74 -47 -33 -19 -59 -38 -59 -44 0 -5 16 -9 36 -9 58 0
324 52 349 69 13 8 30 15 38 15 9 0 52 19 98 42 45 23 88 42 95 42 7 0 14 4
14 9 0 4 31 23 70 42 39 18 90 45 113 59 23 15 72 42 109 61 37 18 69 40 72
47 3 7 12 13 20 13 8 0 46 19 84 42 38 23 76 42 84 42 8 0 15 5 15 11 0 10
168 94 189 94 5 0 10 4 10 10 0 5 15 13 34 17 19 4 41 13 50 21 9 7 41 23 72
36 31 12 67 29 79 37 12 9 35 16 51 16 17 0 32 6 36 15 3 9 19 16 36 16 16 0
43 5 59 12 104 42 162 60 208 66 23 3 68 12 100 21 59 17 140 31 288 49 46 6
108 15 137 21 105 21 420 41 551 35 178 -8 216 -11 228 -19 6 -3 50 -10 99
-16 48 -6 116 -18 151 -28 34 -9 75 -19 89 -21 14 -2 52 -9 84 -15 32 -6 107
-18 168 -27 61 -8 120 -20 131 -26 12 -5 31 -10 42 -10 43 0 111 -13 116 -22
4 -5 17 -9 31 -9 13 0 27 -8 30 -16 4 -9 18 -16 32 -16 14 0 31 -7 38 -16 7
-8 20 -15 28 -15 7 0 14 -5 14 -11 0 -6 5 -10 11 -10 47 0 248 -196 357 -349
40 -56 73 -104 73 -107 0 -6 46 -78 63 -98 12 -14 73 -18 113 -7 32 9 30 36
-3 36 -14 0 -26 5 -26 11 0 6 -7 26 -15 45 -8 18 -27 59 -41 91 -25 55 -117
203 -167 267 -80 103 -229 232 -302 263 -9 4 -25 11 -37 16 -45 19 -172 55
-246 69 -44 8 -91 17 -105 20 -15 3 -66 12 -113 20 -48 9 -91 18 -96 21 -14 9
-209 48 -421 86 -114 20 -638 29 -804 15z" />
    <path d="M4258 18148 c-164 -17 -270 -32 -341 -51 -32 -8 -96 -22 -142 -32
-46 -9 -94 -22 -105 -27 -12 -5 -59 -21 -105 -35 -118 -36 -216 -69 -247 -85
-14 -7 -59 -26 -100 -41 -40 -16 -97 -41 -126 -56 -61 -32 -75 -38 -110 -53
-45 -20 -182 -97 -215 -122 -18 -13 -39 -27 -47 -31 -34 -15 -206 -132 -237
-161 -11 -10 -33 -27 -47 -36 -41 -27 -189 -165 -240 -224 -50 -59 -89 -127
-80 -142 5 -9 29 -7 71 6 33 11 188 113 211 139 11 13 25 23 32 23 6 0 26 14
45 32 18 17 36 31 40 31 4 0 27 17 52 37 25 20 64 47 87 60 22 13 67 41 98 61
31 21 64 41 73 45 8 4 29 17 47 28 17 11 53 30 79 43 25 12 54 26 63 32 8 5
31 17 51 26 20 9 42 23 51 31 8 8 23 15 33 15 10 0 22 4 28 9 5 6 36 20 68 33
31 13 69 28 84 34 14 5 40 16 57 24 18 7 51 20 74 29 23 9 72 28 110 42 38 15
86 30 107 33 21 4 40 10 42 15 5 14 340 99 481 123 223 38 431 46 525 21 88
-23 357 -171 357 -196 0 -5 7 -9 15 -9 8 0 17 -8 20 -16 4 -9 12 -16 20 -16 7
0 37 -22 66 -47 29 -26 58 -47 65 -47 8 0 14 -5 14 -9 0 -13 72 -43 115 -49
54 -7 124 5 130 22 4 10 -7 20 -35 31 -22 9 -61 39 -87 66 -53 55 -186 177
-234 213 -17 13 -34 27 -36 31 -16 20 -149 88 -215 109 -147 47 -435 65 -662
41z" />
    <path d="M4415 15966 c-24 -37 -9 -75 36 -84 45 -10 61 -33 29 -41 -29 -8
-133 -108 -173 -167 -62 -91 -119 -196 -145 -265 -15 -41 -33 -90 -41 -110 -7
-21 -33 -110 -57 -199 -58 -212 -66 -324 -32 -422 31 -89 74 -166 97 -173 10
-3 16 -10 13 -15 -10 -17 163 -77 294 -101 82 -15 194 4 268 46 62 36 55 30
210 181 74 72 159 155 189 183 68 66 125 161 171 290 49 135 72 237 66 292 -6
61 -29 149 -38 149 -4 0 -11 11 -14 26 -4 14 -12 26 -17 26 -6 0 -10 5 -10 12
0 7 -13 25 -29 41 -16 16 -48 49 -70 72 -23 23 -56 48 -74 55 -18 7 -46 22
-62 34 -90 61 -418 181 -528 192 -62 6 -66 5 -83 -22z m301 -214 c95 -55 240
-187 240 -217 0 -7 9 -21 21 -31 11 -11 19 -22 19 -26 -1 -3 4 -25 11 -48 25
-85 6 -212 -58 -384 -23 -63 -40 -84 -190 -237 -215 -219 -292 -272 -395 -268
-38 1 -52 13 -83 73 -60 115 -63 275 -7 447 18 53 39 124 48 159 37 144 111
310 190 421 49 70 121 141 142 140 7 0 35 -13 62 -29z" />
    <path d="M6106 15829 c-23 -8 -64 -15 -91 -15 -44 -1 -50 -4 -65 -35 -10 -22
-13 -38 -6 -44 14 -15 12 -21 -18 -54 -135 -151 -289 -564 -314 -839 -3 -35
-9 -102 -14 -149 -10 -107 -6 -210 10 -295 20 -107 112 -219 214 -259 194 -76
358 -93 446 -48 52 26 191 163 271 265 30 39 55 74 55 78 0 4 9 17 20 29 22
25 110 187 122 227 4 14 16 45 26 68 25 57 66 166 90 236 20 59 28 231 14 299
-14 64 -22 90 -31 90 -6 0 -16 15 -24 34 -8 18 -47 67 -87 108 -61 62 -91 83
-194 134 -68 33 -125 60 -129 60 -3 0 -27 15 -52 34 -46 36 -129 75 -175 85
-14 2 -45 -2 -68 -9z m125 -195 c79 -24 204 -88 248 -128 52 -47 115 -127 115
-145 0 -10 5 -20 11 -22 6 -2 18 -32 27 -66 19 -74 14 -167 -16 -269 -73 -251
-196 -468 -370 -651 -108 -113 -186 -154 -270 -141 -46 6 -106 47 -106 71 0 5
-10 21 -21 35 -30 39 -45 154 -38 301 3 70 8 142 10 160 3 17 8 55 11 83 9 73
87 386 116 463 13 35 39 94 58 131 37 74 126 199 141 199 5 0 43 -9 84 -21z" />
    <path d="M4762 13600 c-52 -56 -63 -93 -65 -226 -1 -67 2 -123 6 -123 5 0 14
-19 22 -42 12 -38 26 -57 86 -123 39 -43 84 -76 111 -83 16 -4 36 -13 45 -21
9 -8 37 -21 62 -30 25 -9 51 -20 57 -25 27 -22 167 -58 308 -80 140 -22 324
180 337 369 4 69 3 77 -21 101 -27 27 -130 71 -167 71 -25 0 -43 -40 -29 -65
22 -44 4 -122 -46 -195 -56 -83 -100 -116 -165 -126 -49 -7 -284 128 -284 164
0 4 -14 21 -31 38 -18 16 -32 41 -32 54 0 13 -4 26 -9 29 -27 17 -33 235 -7
254 34 25 19 52 -40 70 -79 25 -107 23 -138 -11z" />
    <path d="M4638 11602 c-38 -22 -5 -115 40 -115 9 0 16 -7 16 -16 0 -9 4 -14 9
-11 5 3 12 -1 15 -9 13 -33 118 -69 320 -110 155 -32 252 3 351 127 59 73 54
87 -43 117 -95 30 -116 25 -194 -47 -18 -16 -42 -37 -52 -46 -10 -9 -39 -19
-65 -22 -38 -5 -55 -2 -95 21 -27 15 -55 28 -62 28 -6 0 -25 12 -41 27 -17 15
-58 37 -93 47 -72 23 -80 23 -106 9z" />
  </g>
</svg>